PathFileType	3	(X/Y/Z)	RCH0000002 BBF 12.c3d
DataRate	CameraRate	NumFrames	NumMarkers	Units	OrigDataRate	OrigDataStartFrame	OrigNumFrames
100.0	100.0	16	23	mm	100.0	464	406
Frame#	Time	T10			RPSI			LPAT			LANK			LMED			LTOE			RPAT			RKNE			RANK			RMED			RTOE			LKNE			RHEE			RASI			MAN			LHEE			LASI			T2			LPSI			RTHI			LTHI			RTIB			LTIB			
		X1	Y1	Z1	X2	Y2	Z2	X3	Y3	Z3	X4	Y4	Z4	X5	Y5	Z5	X6	Y6	Z6	X7	Y7	Z7	X8	Y8	Z8	X9	Y9	Z9	X10	Y10	Z10	X11	Y11	Z11	X12	Y12	Z12	X13	Y13	Z13	X14	Y14	Z14	X15	Y15	Z15	X16	Y16	Z16	X17	Y17	Z17	X18	Y18	Z18	X19	Y19	Z19	X20	Y20	Z20	X21	Y21	Z21	X22	Y22	Z22	X23	Y23	Z23	

464	4.630	982.24964	-63.61997	782.26341	958.59742	-108.92286	696.72795	1027.30171	-39.20437	335.41606	782.80234	44.05381	122.74141	783.56253	-24.61322	135.55252	808.13519	1.76539	86.77534	1123.12895	-110.62614	378.10094	1081.38656	-165.60404	339.89661	1003.75578	-187.46805	78.48314	986.10396	-120.20467	91.58488	1042.98509	-146.40519	70.56862	975.22782	20.69496	311.78984	958.50880	-162.43778	114.73176	1070.79363	-161.65236	646.01370	1121.92155	-65.07244	937.80092	766.69998	10.20038	172.91011	1060.46423	12.84585	619.95283	986.56919	-74.01396	969.17366	956.50357	-39.11519	685.35233	1079.83602	-237.15048	450.30154	999.82195	91.00670	434.26347	1056.61316	-241.05738	232.12758	905.07680	93.03507	229.71485	
465	4.640	991.42921	-62.72729	784.76966	967.32911	-108.46034	700.13590	1043.09198	-41.41211	338.11040	798.82851	42.09167	124.82941	800.25781	-26.78576	136.89688	824.94784	0.43814	88.79481	1123.23731	-113.21030	378.33453	1080.56464	-168.07583	341.10862	1003.57331	-187.63785	78.88211	986.37119	-120.39939	92.36001	1043.01867	-146.69226	70.84655	991.29468	18.63294	313.52954	958.36616	-162.53234	115.26980	1078.32798	-163.43732	649.08220	1130.86098	-65.26706	940.38527	782.85243	7.47557	174.34622	1070.48966	11.02697	621.51539	995.54096	-73.39956	971.54172	966.03285	-38.66893	688.07062	1082.07088	-239.48730	451.53399	1013.88001	89.24782	436.20015	1055.11427	-242.72054	232.51226	920.64424	90.96737	232.24014	
466	4.650	1000.48545	-62.06383	787.46494	976.05168	-108.15162	703.56026	1059.13586	-43.06891	341.44602	815.58012	39.89771	126.68485	818.03490	-29.19427	137.97421	842.96339	-0.87769	90.77706	1122.99361	-115.35105	378.65786	1079.50534	-170.19991	342.40120	1003.35885	-187.57343	79.36565	986.67415	-120.34119	93.12027	1043.06406	-146.79671	71.14238	1007.43086	16.91685	315.85901	958.18433	-162.30178	115.81586	1085.86333	-165.11160	652.10511	1139.74044	-65.26510	943.11025	799.69344	4.32883	175.41021	1080.33484	9.29987	623.48303	1004.50839	-72.72271	974.14472	975.47168	-38.39549	690.99796	1084.26291	-241.51330	452.74028	1027.64404	87.79558	438.75534	1053.31945	-244.07119	233.05602	936.17611	89.05770	235.17183	
467	4.660	1009.42497	-61.62402	790.27304	984.76149	-107.97312	706.92850	1075.44233	-44.16583	345.33726	833.06648	37.51295	128.26780	836.83882	-31.78204	138.77250	862.10928	-2.17977	92.67851	1122.51659	-117.09120	379.06847	1078.32176	-171.99342	343.76279	1003.14031	-187.31437	79.94583	987.02630	-120.07265	93.89012	1043.13293	-146.74871	71.46249	1023.66886	15.55609	318.68364	958.00251	-161.79804	116.40102	1093.41545	-166.65832	655.02830	1148.58056	-65.07661	945.89756	817.23455	0.85287	176.09542	1090.01138	7.69112	625.76334	1013.49038	-72.02041	976.91092	984.81596	-38.26566	694.03848	1086.47103	-243.23518	453.91042	1041.12149	86.66520	441.81242	1051.33433	-245.13430	233.75129	951.75575	87.31355	238.38316	
468	4.670	1018.25277	-61.38784	793.11549	993.44999	-107.89241	710.16936	1092.01353	-44.72928	349.69042	851.31117	34.99995	129.54516	856.61071	-34.47231	139.29130	882.31053	-3.45799	94.46127	1121.93494	-118.51171	379.55859	1077.12228	-173.50230	345.18262	1002.95513	-186.91560	80.62704	987.44858	-119.65351	94.69339	1043.24580	-146.59027	71.81129	1040.05474	14.54158	321.89720	957.86671	-161.09490	117.05162	1100.99315	-168.06580	657.80593	1157.40155	-64.71317	948.66420	835.49330	-2.82958	176.40459	1099.53404	6.22015	628.25262	1022.50386	-71.32485	979.76385	994.06055	-38.24222	697.08974	1088.73509	-244.68360	455.04342	1054.34579	85.85373	445.23835	1049.27190	-245.95953	234.58363	967.49803	85.73732	241.73759	
469	4.680	1026.97265	-61.32304	795.91439	1002.10552	-107.87113	713.21502	1108.84125	-44.81646	354.40905	870.34795	32.44022	130.49137	877.29211	-37.17310	139.53858	903.49572	-4.69242	96.09405	1121.37804	-119.71657	380.11375	1076.00575	-174.79115	346.64849	1002.84412	-186.44050	81.40461	987.96549	-119.15295	95.54914	1043.42793	-146.37029	72.18966	1056.63988	13.84840	325.39013	957.82364	-160.27804	117.78597	1108.59912	-169.32803	660.40089	1166.22206	-64.18717	951.32625	854.48924	-6.57508	176.34648	1108.92056	4.89810	630.84158	1031.56275	-70.66141	982.62511	1003.20068	-38.28326	700.04754	1091.07680	-245.90670	456.14344	1067.37124	85.34125	448.89390	1047.24338	-246.61220	235.53180	983.53599	84.33027	245.10179	
470	4.690	1035.58811	-61.38815	798.59511	1010.71573	-107.86819	716.00323	1125.90448	-44.50800	359.39811	890.21586	29.92900	131.08866	898.82855	-39.78419	139.52703	925.60144	-5.85323	97.55236	1120.96675	-120.81569	380.71279	1075.05810	-175.93186	348.14538	1002.84522	-185.95321	82.26537	988.60057	-118.64110	96.46889	1043.70466	-146.13899	72.59434	1073.47236	13.43946	329.05686	957.91493	-159.43436	118.61298	1116.23166	-170.44450	662.78465	1175.05830	-63.51120	953.80279	874.24035	-10.23108	175.93231	1118.19177	3.72739	633.42102	1040.67722	-70.04708	985.41722	1012.23357	-38.34553	702.81093	1093.50376	-246.96187	457.21606	1080.26627	85.09353	452.64324	1045.35014	-247.16313	236.56902	1000.00600	83.09553	248.35659	
471	4.700	1044.10343	-61.53582	801.08858	1019.27012	-107.84289	718.47928	1143.16831	-43.89904	364.56688	910.95388	27.56779	131.32679	921.17175	-42.20519	139.27043	948.57468	-6.90258	98.81818	1120.80540	-121.90865	381.32874	1074.35047	-176.99291	349.65483	1002.98795	-185.51151	83.18942	989.37223	-118.18102	97.45547	1044.09687	-145.94259	73.01821	1090.58885	13.26965	332.80150	958.17230	-158.64202	119.53213	1123.88683	-171.41965	664.93666	1183.92335	-62.69761	956.01962	894.76017	-13.64829	175.17266	1127.37169	2.70231	635.88725	1049.85327	-69.48956	988.06626	1021.16030	-38.38752	705.28699	1096.01551	-247.90726	458.26507	1093.10563	85.06584	456.36226	1043.67742	-247.67887	237.66494	1017.03326	82.03935	251.40480	
472	4.710	1052.52485	-61.71625	803.33315	1027.76261	-107.75769	720.59764	1160.58391	-43.09018	369.83046	932.59558	25.45566	131.20250	944.28010	-44.34388	138.78050	972.37266	-7.79832	99.87909	1120.97597	-123.07179	381.93039	1073.93855	-178.03094	351.15511	1003.28930	-185.16100	84.15272	990.29043	-117.82223	98.50320	1044.61745	-145.81892	73.45118	1108.00799	13.28988	336.54135	958.61430	-157.96242	120.53478	1131.56105	-172.26187	666.84333	1192.82690	-61.75824	957.91246	916.05543	-16.69257	174.07504	1136.48765	1.81019	638.14674	1059.09252	-68.98713	990.50416	1029.98751	-38.37218	707.39506	1098.61049	-248.79396	459.28991	1105.96244	85.20718	459.94458	1042.29033	-248.21365	238.78802	1034.71896	81.17057	254.17497	
473	4.720	1060.86178	-61.88039	805.27604	1036.19376	-107.58054	722.32310	1178.08952	-42.17938	375.10987	955.16372	23.68024	130.71852	968.11705	-46.12367	138.06452	996.96018	-8.49899	100.72694	1121.53512	-124.35053	382.48422	1073.86312	-179.08535	352.62215	1003.75173	-184.93145	85.13009	991.35493	-117.59650	99.59933	1045.26920	-145.79439	73.88150	1125.72553	13.45035	340.20795	959.24510	-157.43518	121.60637	1139.25354	-172.98225	668.49698	1201.77525	-60.70429	959.42960	938.12405	-19.25504	172.64252	1145.57036	1.03333	640.11973	1068.39249	-68.52911	992.67067	1038.72890	-38.26882	709.07000	1101.29235	-249.66026	460.28423	1118.90095	85.46444	463.30478	1041.23209	-248.80419	239.90793	1053.13056	80.49833	256.62099	
474	4.730	1069.12772	-61.98277	806.87418	1044.57241	-107.28632	723.63141	1195.61224	-41.25590	380.33079	978.66510	22.30968	129.88221	992.64745	-47.48964	137.12384	1022.30437	-8.96931	101.35620	1122.51452	-125.75736	382.95682	1074.15171	-180.17630	354.03113	1004.36339	-184.83558	86.09813	992.55515	-117.51644	100.72635	1046.04442	-145.88276	74.29721	1143.71175	13.70290	343.74583	960.05528	-157.07641	122.72912	1146.96864	-173.59321	669.89457	1210.77160	-59.54627	960.53361	960.95297	-21.25953	170.87319	1154.65387	0.35124	641.74279	1077.74711	-68.09703	994.51480	1047.40618	-38.05436	710.26427	1104.07479	-250.52846	461.23564	1131.97080	85.78593	466.37892	1040.52479	-249.46758	240.99794	1072.29557	80.02902	258.71833	
475	4.740	1077.34107	-61.98372	808.09466	1052.91664	-106.85770	724.50920	1213.07044	-40.39651	385.42127	1003.08546	21.38654	128.70364	1017.83198	-48.41231	135.95320	1048.36765	-9.18534	101.76205	1123.92423	-127.27506	383.31736	1074.82121	-181.30566	355.35837	1005.10045	-184.87028	87.03777	993.87177	-117.57683	101.86470	1046.92610	-146.08555	74.68739	1161.91117	14.00238	347.10921	961.02435	-156.88029	123.88503	1154.71747	-174.10723	671.03662	1219.81663	-58.29398	961.20233	984.51538	-22.66670	168.76034	1163.77535	-0.25717	642.96999	1087.14742	-67.66622	995.99581	1056.04944	-37.71370	710.94873	1106.98419	-251.40443	462.12664	1145.20335	86.12396	469.12229	1040.17210	-250.20231	242.03677	1092.19921	79.76286	260.45774	
476	4.750	1085.52547	-61.85105	808.91468	1061.25387	-106.28519	724.95344	1230.37686	-39.66419	390.30882	1028.38455	20.92429	127.19365	1043.62000	-48.88902	134.54086	1075.09923	-9.13867	101.93855	1125.75868	-128.86395	383.53980	1075.88141	-182.46028	356.58327	1005.93118	-185.01979	87.93610	995.27970	-117.75825	102.99562	1047.89061	-146.39398	75.04321	1180.24451	14.30708	350.25749	962.12486	-156.82347	125.05868	1162.51894	-174.53584	671.92610	1228.90918	-56.95660	961.42893	1008.76709	-23.47460	166.29337	1172.97464	-0.81144	643.77292	1096.58253	-67.20779	997.08380	1064.69682	-37.23933	711.11221	1110.05990	-252.27978	462.93651	1158.61043	86.43641	471.50531	1040.16397	-250.99168	243.01001	1112.78541	79.69118	261.83794	
477	4.760	1093.70985	-61.56108	809.32119	1069.62018	-105.56654	724.97034	1247.44235	-39.10881	394.91766	1054.49101	20.90687	125.36192	1069.94130	-48.94297	132.86966	1102.42588	-8.83886	101.87713	1128.00447	-130.47135	383.60440	1077.33914	-183.61673	357.68956	1006.82117	-185.26040	88.78738	996.75215	-118.03237	104.10361	1048.91119	-146.79189	75.35837	1198.61293	14.57849	353.15022	963.32722	-156.87141	126.23951	1170.39985	-174.88888	672.56753	1238.04702	-55.54256	961.22118	1033.64173	-23.71596	163.45928	1182.29357	-1.32799	644.13977	1106.04067	-66.69075	997.75968	1073.39345	-36.63041	710.76011	1113.35248	-253.13566	463.64355	1172.18561	86.68727	473.50828	1040.48265	-251.80900	243.91065	1133.96067	79.79475	262.85855	
478	4.770	1101.92811	-61.09923	809.31017	1078.05883	-104.70594	724.57398	1264.18009	-38.76920	399.16672	1081.29726	21.29112	123.21575	1096.69752	-48.62004	130.91893	1130.24305	-8.31382	101.56582	1130.64858	-132.04144	383.49806	1079.20283	-184.74643	358.66575	1007.73901	-185.56559	89.59303	998.26500	-118.36798	105.17814	1049.96200	-147.25929	75.62911	1216.90413	14.78093	355.74279	964.60505	-156.98577	127.42338	1178.39420	-175.17426	672.96610	1247.22761	-54.05962	960.60011	1059.04515	-23.45258	160.24496	1191.77494	-1.81893	644.07358	1115.51018	-66.08408	998.01498	1082.18967	-35.89144	709.91222	1116.92035	-253.94762	464.22744	1185.90769	86.84656	475.11622	1041.10964	-252.62338	244.73863	1155.59966	80.04338	263.51476	
479	4.780	1110.21835	-60.46012	808.88592	1086.61808	-103.71293	723.78478	1280.51025	-38.67582	402.96933	1108.65457	22.01180	120.76000	1123.75397	-47.98395	128.66747	1158.40687	-7.60804	100.98957	1133.68622	-133.52389	383.21345	1081.48683	-185.82044	359.50428	1008.66168	-185.91106	90.36069	999.80100	-118.73671	106.21457	1051.02193	-147.77577	75.85365	1234.99998	14.88132	357.98367	965.94027	-157.13163	128.61308	1186.54165	-175.39793	673.12692	1256.44879	-52.51473	959.59819	1084.84930	-22.76762	156.64043	1201.46108	-2.29150	643.59015	1124.98048	-65.35873	997.85116	1091.13855	-35.03094	708.60028	1120.82576	-254.69035	464.67087	1199.74606	86.88982	476.31474	1042.03283	-253.40526	245.49943	1177.55193	80.39707	263.79455	
